<svg version="1.1" xmlns="http://www.w3.org/2000/svg" xmlns:xlink="http://www.w3.org/1999/xlink" width="339.96325" height="410.68388" viewBox="0,0,339.96325,410.68388"><defs><radialGradient cx="402.40407" cy="298.00435" r="111.86186" gradientUnits="userSpaceOnUse" id="color-1"><stop offset="0" stop-color="#00b33a"/><stop offset="1" stop-color="#00b33a" stop-opacity="0"/></radialGradient><linearGradient x1="250.56884" y1="243.42891" x2="401.34468" y2="243.42891" gradientUnits="userSpaceOnUse" id="color-2"><stop offset="0" stop-color="#fff766"/><stop offset="1" stop-color="#fff766" stop-opacity="0"/></linearGradient><linearGradient x1="529.63109" y1="210.31436" x2="393.54369" y2="145.40231" gradientUnits="userSpaceOnUse" id="color-3"><stop offset="0" stop-color="#fff766"/><stop offset="1" stop-color="#fff766" stop-opacity="0"/></linearGradient><linearGradient x1="261.78399" y1="86.82278" x2="353.07247" y2="206.82182" gradientUnits="userSpaceOnUse" id="color-4"><stop offset="0" stop-color="#fff766"/><stop offset="1" stop-color="#fff766" stop-opacity="0"/></linearGradient><linearGradient x1="442.27226" y1="48.92561" x2="335.73735" y2="155.61988" gradientUnits="userSpaceOnUse" id="color-5"><stop offset="0" stop-color="#fff766"/><stop offset="1" stop-color="#fff766" stop-opacity="0"/></linearGradient></defs><g transform="translate(-212.8995,-6.68233)"><g data-paper-data="{&quot;isPaintingLayer&quot;:true}" fill-rule="nonzero" stroke-linejoin="miter" stroke-miterlimit="10" stroke-dasharray="" stroke-dashoffset="0" style="mix-blend-mode: normal"><path d="M388.64865,186.14249c0,0 12.66034,21.7131 17.21704,54.11857c22.68418,161.32116 0.80098,169.60516 0.80098,169.60516" fill="none" stroke="url(#color-1)" stroke-width="15" stroke-linecap="round"/><path d="M367.67105,174.63348c0.66543,0 1.25617,0.07468 1.78062,0.20727c0.52445,-0.13259 1.11521,-0.20727 1.78063,-0.20727c5.92949,0 5.92949,5.92949 5.92949,5.92949c-0.24876,1.62072 -0.05755,3.49356 0.00646,5.29352c3.25574,1.01027 6.44564,2.30985 8.9406,4.75871c1.60481,1.57516 0.60273,5.04228 2.48579,6.27137c1.98815,1.29767 5.61154,-1.8313 7.12251,0c3.44498,4.17531 6.30104,9.93213 5.48786,15.28375c-0.4029,2.65151 -5.31576,0.71698 -7.97365,1.07547c2.54354,4.29082 4.67181,6.58503 0.85114,13.16955c-1.33219,2.29589 -5.82469,1.24576 -7.1225,3.56125c-1.24156,2.21515 0.82389,5.02783 0.88556,7.56644c0.10368,4.26764 0.84338,8.71413 -0.39078,12.80073c-0.83605,2.76835 -3.7976,4.37155 -5.50104,6.70844c-6.54692,8.98157 -11.43421,20.14917 -18.57189,28.58543c-7.59582,8.97776 -10.46503,8.50082 -19.08816,15.69357c-3.49867,2.91832 -5.95596,7.19128 -9.96606,9.35378c-5.89145,3.17704 -13.38191,0.45136 -20.07539,0.45136c-13.05793,0 -26.11586,0 -39.17379,0c-2.97632,0 -16.26696,0.24954 -17.71205,-1.11924c-3.80266,-3.60186 -3.96476,-9.69614 -5.94715,-14.54421c-0.06821,-10.36352 -1.97821,-24.57433 0.15918,-34.65638c0.52619,-2.48205 3.27096,-4.04505 4.0019,-6.47469c1.11028,-3.69055 0.23246,-7.8037 1.39875,-11.47693c3.68887,-11.61809 11.72706,-18.19665 20.04523,-26.2875c3.14202,-3.05616 5.78027,-6.76492 9.48487,-9.10765c3.4955,-2.21051 7.9586,-2.40115 11.65324,-4.25977c3.42521,-1.72309 6.25934,-4.44403 9.55239,-6.40794c9.25541,-5.51973 17.888,-8.15459 28.41349,-10.27941c0.58529,-0.11816 23.6058,-4.72935 23.83596,-4.73776c0.6461,-0.0236 1.28235,0.12511 1.91286,0.34571l-0.13556,-1.56759c0,0 0,-5.92948 5.92949,-5.92948zM367.03121,193.53222c-2.00489,-0.09495 -4.03554,-0.23627 -5.89839,0.05389c-16.11926,2.51072 -33.28433,5.00353 -47.46566,13.47286c-3.49583,2.08777 -6.54228,4.92326 -10.18213,6.74841c-3.37043,1.69006 -7.47714,1.73155 -10.68396,3.71459c-2.99665,1.85308 -4.95803,5.00737 -7.44937,7.49876c-6.51367,6.51378 -14.33323,11.95216 -17.02589,21.29193c-1.12251,3.89354 -0.42219,8.1717 -1.58967,12.052c-0.66134,2.19808 -3.27408,3.5213 -3.77021,5.76246c-1.85669,8.38716 0.22754,20.75468 0.15917,29.44619c0.39179,2.27443 -0.31621,5.06212 1.17536,6.82331c0.82357,0.97244 2.38797,-0.98761 3.65548,-1.11924c2.36147,-0.24523 4.74834,0 7.12251,0c13.05793,0 26.11586,0 39.17379,0c3.95299,0 7.90766,-0.11478 11.85898,0c1.23474,0.03587 2.64934,1.135 3.67818,0.45136c2.79464,-1.857 4.28182,-5.20562 6.80506,-7.41734c7.31705,-6.41366 11.4291,-6.80865 17.63552,-14.21553c4.59314,-5.48156 7.55405,-12.14844 11.52437,-18.09663c2.27251,-3.4046 4.33745,-6.95794 6.82422,-10.20934c1.07105,-1.40037 3.32616,-1.98158 3.7988,-3.68005c1.99936,-7.18478 -2.62876,-15.59572 0.49478,-22.36787c1.11174,-2.41037 5.43416,-1.51301 7.12251,-3.56126c0.86969,-1.05507 -0.96141,-2.63998 -0.88556,-4.00519c0.15997,-2.87946 0.73944,-5.71517 1.26285,-8.55673c-0.72481,-0.05053 -1.40782,-0.23473 -2.01193,-0.64436c-2.54474,-1.72553 -2.48446,-5.778 -4.63672,-7.97365c-1.42237,-1.45104 -3.79586,-1.48086 -5.58148,-2.45054c-1.7389,-0.9443 -3.42954,-1.97279 -5.1106,-3.01801z" fill="url(#color-2)" stroke="#000000" stroke-width="0" stroke-linecap="butt"/><path d="M394.31905,221.99293c-0.6006,-0.28648 -1.10165,-0.60821 -1.51792,-0.95367c-0.53044,-0.10611 -1.0958,-0.29305 -1.6964,-0.57953c-5.35185,-2.55276 -2.79907,-7.9046 -2.79907,-7.9046c0.92228,-1.35574 1.55599,-3.12844 2.27314,-4.78061c-2.50363,-2.31351 -4.82328,-4.85981 -6.0209,-8.14424c-0.77033,-2.11262 1.6268,-4.81056 0.45633,-6.7306c-1.23579,-2.02719 -5.85328,-0.76298 -6.42864,-3.06638c-1.31182,-5.25169 -1.41121,-11.67729 1.62673,-16.15746c1.50518,-2.21975 5.10658,1.64142 7.65988,2.46213c-0.44847,-4.96786 -1.3817,-7.95482 4.90153,-12.25302c2.19083,-1.49869 5.79358,1.38325 7.96183,-0.14794c2.07428,-1.46483 1.42095,-4.89273 2.45821,-7.21059c1.74373,-3.89652 2.99039,-8.22829 5.86369,-11.38545c1.94644,-2.13872 5.30969,-2.31074 7.85325,-3.68661c9.77587,-5.28801 18.99492,-13.2636 29.06924,-17.80509c10.72095,-4.83299 13.10531,-3.16726 23.98501,-5.94688c4.41423,-1.12777 8.47173,-3.92656 13.02217,-4.15196c6.68529,-0.33115 12.27258,5.35379 18.31399,8.23547c11.78584,5.62171 23.57167,11.24341 35.35751,16.86511c2.68637,1.28136 14.78968,6.77803 15.5047,8.6356c1.88153,4.88809 -0.59586,10.45846 -0.8938,15.68769c-4.40014,9.38329 -8.79426,23.03197 -15.06394,31.21166c-1.5435,2.01371 -4.69378,2.24277 -6.39952,4.12103c-2.59098,2.85303 -3.56946,6.94339 -6.20354,9.75668c-8.33132,8.89813 -18.41864,11.37522 -29.40974,15.09672c-4.15167,1.40572 -8.12959,3.61737 -12.48189,4.13697c-4.10665,0.49027 -8.21703,-1.2591 -12.35192,-1.17216c-3.83335,0.0806 -7.56281,1.31632 -11.38055,1.67118c-10.73012,0.99737 -19.65609,-0.34096 -30.07097,-2.95458c-0.57914,-0.14533 -23.34222,-5.89415 -23.55358,-5.98565c-0.59332,-0.25687 -1.10356,-0.665 -1.57768,-1.13556l-0.55252,1.47324c0,0 -2.55276,5.35184 -7.90461,2.79908zM403.03285,205.21075c1.76869,0.94885 3.54068,1.95064 5.34697,2.49074c15.62985,4.67354 32.19592,9.81349 48.64194,8.27459c4.0541,-0.37936 8.0245,-1.62706 12.09552,-1.70738c3.7697,-0.07437 7.49419,1.65619 11.24234,1.24694c3.50251,-0.38243 6.63079,-2.38502 9.95203,-3.56113c8.68343,-3.07495 18.08255,-4.61705 24.53385,-11.8877c2.6894,-3.03098 3.89914,-7.19385 6.62343,-10.19352c1.54323,-1.69923 4.47112,-1.7687 5.88378,-3.57793c5.28665,-6.77075 8.72993,-18.83074 12.53351,-26.6461c0.62557,-2.22153 2.46475,-4.43283 1.87671,-6.6646c-0.32469,-1.23227 -2.58051,-0.13667 -3.78121,-0.56356c-2.23699,-0.79532 -4.28576,-2.04425 -6.42864,-3.06638c-11.78584,-5.6217 -23.57168,-11.24341 -35.35752,-16.86511c-3.5679,-1.70184 -7.18671,-3.3008 -10.70369,-5.10553c-1.099,-0.56395 -1.90261,-2.16503 -3.12554,-1.99092c-3.32186,0.47294 -6.10581,2.85509 -9.33543,3.76504c-9.36544,2.63871 -13.24696,1.2249 -22.03756,5.23822c-6.50559,2.97011 -12.04829,7.71279 -18.19264,11.37221c-3.51688,2.09456 -6.91044,4.41274 -10.55473,6.27679c-1.56959,0.80284 -3.85524,0.35656 -5.01306,1.68608c-4.89778,5.62408 -4.34161,15.20813 -10.0764,19.9758c-2.04115,1.69692 -5.55614,-0.97391 -7.96183,0.14794c-1.23919,0.57788 -0.26882,2.79671 -0.92503,3.99626c-1.38405,2.53008 -3.1279,4.84006 -4.82367,7.17946c0.63245,0.35765 1.16962,0.81795 1.53852,1.44776c1.55396,2.65299 -0.24512,6.28471 0.7522,9.19306c0.6591,1.92204 2.78853,2.9708 3.98273,4.61475c1.16295,1.60094 2.24612,3.25708 3.31342,4.92421z" fill="url(#color-3)" stroke="#000000" stroke-width="0" stroke-linecap="butt"/><path d="M387.43719,138.36899c0.40289,0.5296 0.70112,1.04497 0.91314,1.54265c0.42306,0.33712 0.84017,0.76208 1.24306,1.29167c3.59006,4.71914 -1.12909,8.3092 -1.12909,8.3092c-1.4405,0.7833 -2.81529,2.0694 -4.20908,3.21014c1.16717,3.20284 2.0642,6.52846 1.6258,9.99683c-0.28199,2.23093 -3.64811,3.53259 -3.48619,5.77543c0.17095,2.36801 4.85504,3.35733 4.31238,5.66864c-1.23724,5.26976 -4.08974,11.02835 -8.84131,13.62133c-2.35422,1.28473 -3.7891,-3.7966 -5.68365,-5.6949c-1.87495,4.62225 -2.4123,7.70515 -9.96602,8.65102c-2.63383,0.3298 -4.51808,-3.88149 -7.1467,-3.51245c-2.5147,0.35305 -3.5027,3.69986 -5.48579,5.28597c-3.33375,2.66639 -6.42474,5.94726 -10.42441,7.43929c-2.70946,1.01073 -5.7785,-0.37564 -8.66974,-0.31647c-11.11212,0.22742 -22.9592,3.09927 -33.99499,2.52635c-11.74415,-0.60969 -13.10174,-3.182 -24.04723,-5.69003c-4.44092,-1.01758 -9.32947,-0.38618 -13.4785,-2.26843c-6.09556,-2.76531 -8.46141,-10.37708 -12.51403,-15.70427c-7.90603,-10.3925 -15.81207,-20.78501 -23.7181,-31.17752c-1.80203,-2.36879 -10.04757,-12.79541 -9.83313,-14.77427c0.56429,-5.20722 5.31644,-9.02607 7.97466,-13.53911c8.2068,-6.32896 18.36042,-16.45314 27.6786,-20.85631c2.29399,-1.08399 5.19979,0.15417 7.57604,-0.73513c3.60946,-1.35083 6.35152,-4.53981 9.98111,-5.83557c11.48003,-4.09838 21.58254,-1.68402 33.05817,0.03755c4.3347,0.65029 8.88376,0.50451 12.99126,2.03449c3.87568,1.44362 6.72962,4.88027 10.44581,6.69544c3.44519,1.68278 7.32668,2.29099 10.88351,3.72279c9.9968,4.0242 17.32049,9.29938 25.38432,16.38989c0.44841,0.39428 18.05631,15.92389 18.20235,16.10198c0.40997,0.49993 0.67684,1.09634 0.88302,1.73172l1.16553,-1.05701c0,0 4.71913,-3.59006 8.30919,1.12909zM372.00872,149.30215c-1.13831,-1.65313 -2.25531,-3.35485 -3.61411,-4.66177c-11.75777,-11.30882 -24.13447,-23.4608 -39.46122,-29.61958c-3.77819,-1.5182 -7.87939,-2.22602 -11.53576,-4.01784c-3.38574,-1.65919 -5.90519,-4.9025 -9.42505,-6.25409c-3.28917,-1.26301 -6.98712,-0.91424 -10.47837,-1.3886c-9.12793,-1.24026 -18.19062,-4.17095 -27.25422,-0.65914c-3.77841,1.464 -6.75928,4.61161 -10.55438,6.0318c-2.14981,0.8045 -4.78484,-0.47377 -6.86892,0.4883c-7.7993,3.60037 -16.3804,12.74719 -23.33917,17.95512c-1.57296,1.68889 -4.22028,2.81323 -4.71888,5.06667c-0.27531,1.24423 2.23183,1.30257 3.10401,2.23166c1.62494,1.73096 2.87492,3.7791 4.31238,5.66864c7.90603,10.39251 15.81207,20.78502 23.7181,31.17753c2.39337,3.1461 4.87911,6.22402 7.18012,9.43829c0.71903,1.00441 0.70074,2.79574 1.86775,3.20065c3.16998,1.09985 6.7355,0.25601 10.02347,0.9251c9.53465,1.94027 12.3387,4.97381 21.99139,5.42879c7.1436,0.33672 14.24233,-1.34329 21.38022,-1.78477c4.08555,-0.2527 8.16382,-0.76066 12.25716,-0.75009c1.763,0.00455 3.59094,1.44745 5.22888,0.79526c6.92873,-2.75884 10.82067,-11.53473 18.10165,-13.14903c2.59147,-0.57457 4.49433,3.40886 7.1467,3.51245c1.36627,0.05336 1.51901,-2.36356 2.65146,-3.12977c2.38855,-1.61607 4.99628,-2.87179 7.57472,-4.17567c-0.39862,-0.60745 -0.66556,-1.26257 -0.70531,-1.99138c-0.16743,-3.07003 3.09434,-5.47565 3.5387,-8.51797c0.29367,-2.01058 -1.11965,-3.91764 -1.42902,-5.92587c-0.30128,-1.95568 -0.50635,-3.92393 -0.6923,-5.89468z" fill="url(#color-4)" stroke="#000000" stroke-width="0" stroke-linecap="butt"/><path d="M408.21245,180.40058c-0.47017,0.47088 -0.94042,0.83614 -1.40482,1.11358c-0.27675,0.46481 -0.64131,0.93561 -1.11149,1.40649c-4.18965,4.19592 -8.38556,0.00626 -8.38556,0.00626c-0.97111,-1.32119 -2.4315,-2.5092 -3.75044,-3.73571c-3.01533,1.59005 -6.18888,2.92906 -9.68466,2.96427c-2.24857,0.02265 -3.99397,-3.13626 -6.19425,-2.67217c-2.32306,0.48998 -2.66911,5.26487 -5.03261,5.04013c-5.38874,-0.51239 -11.4805,-2.55899 -14.69292,-6.91576c-1.59163,-2.15861 3.24865,-4.26822 4.87297,-6.40233c-4.83354,-1.2319 -7.96079,-1.3469 -9.92063,-8.70302c-0.68336,-2.56493 3.23406,-5.00198 2.51254,-7.55644c-0.69025,-2.44375 -4.14002,-2.96954 -5.98001,-4.71963c-3.09319,-2.94205 -6.76234,-5.5604 -8.78213,-9.32125c-1.36825,-2.54768 -0.41015,-5.77616 -0.86021,-8.63276c-1.72976,-10.97901 -6.1791,-22.3282 -7.10557,-33.33995c-0.98593,-11.71856 1.3789,-13.41192 2.38196,-24.59619c0.40697,-4.5378 -0.88045,-9.29585 0.42273,-13.66151c1.91458,-6.41383 9.13597,-9.78842 13.86544,-14.52497c9.22645,-9.24025 18.45289,-18.48049 27.67934,-27.72074c2.103,-2.10615 11.3173,-11.68739 13.30696,-11.74284c5.23568,-0.1459 9.66275,4.04548 14.49412,6.06822c7.38178,7.27437 18.78742,15.96383 24.41161,24.60008c1.38459,2.12611 0.55122,5.17279 1.75405,7.40677c1.82707,3.39334 5.35792,5.67842 7.13315,9.09915c5.61489,10.81946 4.59051,21.15583 4.43844,32.75888c-0.05744,4.38282 0.70288,8.87027 -0.25691,13.14709c-0.90562,4.03543 -3.92424,7.32839 -5.21956,11.25611c-1.20086,3.6413 -1.27796,7.56939 -2.21503,11.28732c-2.63371,10.44957 -6.86879,18.42003 -12.80228,27.36958c-0.32995,0.49766 -13.33268,20.04594 -13.48936,20.21475c-0.43982,0.47388 -0.99461,0.81904 -1.59622,1.10934l1.20507,1.01169c0,0 4.19592,4.18964 0.00626,8.38556zM395.29114,166.59437c1.4838,-1.35163 3.01862,-2.68875 4.12955,-4.21198c9.61284,-13.18057 19.9773,-27.08854 24.00433,-43.10799c0.9927,-3.94895 1.13876,-8.10822 2.41906,-11.97351c1.18554,-3.5792 4.05788,-6.51457 4.92048,-10.18499c0.80606,-3.42989 -0.04015,-7.04657 -0.04281,-10.5699c-0.00696,-9.21179 1.66977,-18.58783 -3.0368,-27.09252c-1.96207,-3.54542 -5.48426,-6.0727 -7.40519,-9.64058c-1.08815,-2.02111 -0.1784,-4.80493 -1.41377,-6.73956c-4.62315,-7.24004 -14.84751,-14.50378 -20.94962,-20.69339c-1.8863,-1.32982 -3.35871,-3.80055 -5.6589,-3.98948c-1.27005,-0.10432 -0.98842,2.38763 -1.79087,3.37757c-1.49503,1.84433 -3.35507,3.36009 -5.03261,5.04014c-9.22645,9.24025 -18.4529,18.4805 -27.67935,27.72075c-2.79309,2.79728 -5.50615,5.67684 -8.3793,8.39183c-0.89782,0.8484 -2.67513,1.0728 -2.91831,2.28388c-0.66055,3.28969 0.65824,6.70815 0.44046,10.05643c-0.63153,9.70955 -3.25751,12.89849 -2.40146,22.5239c0.63353,7.12341 3.25914,13.92933 4.66294,20.94172c0.8035,4.01373 1.85893,7.98566 2.40264,12.04275c0.23417,1.74739 -0.94795,3.75385 -0.08002,5.28841c3.6715,6.49143 12.8935,9.1594 15.47869,16.15477c0.92013,2.48982 -2.769,4.91446 -2.51254,7.55644c0.13211,1.36091 2.54746,1.18503 3.45994,2.20333c1.92458,2.14776 3.52179,4.56147 5.16274,6.93963c0.54789,-0.4772 1.16084,-0.83037 1.87756,-0.96843c3.0191,-0.58153 5.84417,2.32452 8.91863,2.35291c2.03183,0.01876 3.72999,-1.63974 5.67784,-2.21815c1.89689,-0.56328 3.81925,-1.03294 5.74668,-1.48398z" fill="url(#color-5)" stroke="#000000" stroke-width="0" stroke-linecap="butt"/></g></g></svg>